<?xml version="1.0" encoding="UTF-8"?><svg id="Layer_1" xmlns="http://www.w3.org/2000/svg" width="155" height="60" viewBox="0 0 155 60"><defs><style>.cls-1{fill:#fff;}</style></defs><path class="cls-1" d="M46.48,50.36c-8.35,0-19.81-.51-22.29-.99-4.07-1.1-6.29-2.8-6.86-5.23-1.85-7.23-.95-25.27.02-28.43.94-3.38,3.2-4.23,6.29-5.07,2.9-.53,12.58-1.07,24.98-1.07h56.4c12.71,0,22.56.54,25.38,1.06,3.15.83,5.4,1.66,6.45,5.08.94,3.08,1.82,21.05.01,28.44-.66,2.46-2.9,4.16-6.87,5.2-2.2.36-11.32.83-18.96.91-1.04,0-2.1.02-3.15.04-1.07.02-2.13.04-3.18.04h-56.48c-.56,0-1.15,0-1.74,0Z"/><path class="cls-1" d="M105.02,10.56c12.8,0,22.56.56,25.2,1.04,3.04.8,4.8,1.52,5.68,4.4s1.76,20.72,0,27.92c-.64,2.4-3.12,3.68-6.16,4.48-2,.32-10.88.8-18.72.88-2.08,0-4.24.08-6.32.08h-56.48c-.57,0-1.15,0-1.74,0-8.57,0-19.78-.52-22.1-.97-2.96-.8-5.52-2.08-6.08-4.48-1.84-7.2-.88-25.04,0-27.92.8-2.88,2.64-3.6,5.6-4.4,2.64-.48,12.16-1.04,24.72-1.04h56.4M105.02,8.58h-56.4c-12.46,0-22.22.55-25.07,1.07h-.08s-.08.04-.08.04c-3.18.86-5.9,1.89-6.99,5.76-1.01,3.39-1.94,21.42-.02,28.96.97,4.14,5.87,5.47,7.48,5.9l.07.02h.07c2.57.51,13.91,1.02,22.47,1.02.6,0,1.19,0,1.76,0h56.46c1.05,0,2.12-.02,3.2-.04,1.05-.02,2.09-.04,3.12-.04,7.92-.08,16.88-.56,19.03-.9l.1-.02.09-.02c1.6-.42,6.45-1.7,7.57-5.88,1.85-7.56.94-25.86-.02-29.01-1.19-3.9-3.91-4.9-7.07-5.74l-.07-.02h-.08c-2.86-.53-12.79-1.09-25.55-1.09h0Z"/><path d="M104.7,49.38c8.72.16,22.43-.48,25.06-.98,3.02-.78,5.54-2.06,6.15-4.48,1.82-7.21.87-25.06,0-27.91-.87-2.85-2.64-3.62-5.67-4.4-2.6-.49-12.41-1.04-25.15-1.04h-51.56c-.47,0-.73.07-.91.25-.22.23-.27.59-.27,1.41v36.5c0,.39.48.65.78.65h51.56Z"/><path d="M50.02,10.81c-.18-.18-.44-.25-.91-.25-12.74,0-22.55.55-25.15,1.04-3.02.78-4.8,1.55-5.67,4.4-.87,2.85-1.82,20.7,0,27.91.61,2.41,3.12,3.69,6.15,4.48,2.63.5,16.35,1.13,25.06.98.31,0,.78-.26.78-.65V12.22c0-.82-.05-1.18-.27-1.41Z"/><path class="cls-1" d="M106.97,17.33h-4.81s0,20.74,0,20.74h4.81s0-20.74,0-20.74ZM80.28,23.13c-.29.07-.5.35-.51.65l.08,14.06c.27.69,1.81.33,2.41.17,2.61-.68,2.68-3.27,2.76-5.51.04-1.16.04-2.49,0-3.65-.07-1.8-.11-4.41-1.99-5.3-.63-.3-2.08-.56-2.75-.41ZM65.29,33.2c.11.1.19.31.21.46.1.81-.2,3.87.13,4.31.33.44,1.88-.12,2.32-.33,1.58-.77,2.16-2.29,2.25-3.98.13-2.4-.77-3.92-3.04-4.69-.76-.26-3.1-.57-3.45-1.17-.45-.77-.02-3.21-.18-4.18-.13-.71-1.46-.31-1.94-.16-1.81.57-2.48,1.89-2.6,3.71-.21,3,.84,4.26,3.58,5.14.65.21,2.27.5,2.71.89ZM66.21,23.22c-.27.06-.48.29-.51.56-.09.67-.08,2.7,0,3.39.05.46.22.58.67.58.76,0,2.24-.16,3.01-.28.98-.15.84-.62.65-1.43-.26-1.12-.93-2.02-2-2.45-.39-.16-1.45-.44-1.83-.36ZM91.94,23.32c-.32-.3-1.88.2-2.29.38-2.18.97-2.41,3.11-2.5,5.24-.1,2.49-.36,6.86,1.93,8.39.59.4,2.92,1.45,3.06.24v-13.62c0-.17-.09-.53-.2-.64ZM95.2,23.22c-.11.01-.36.11-.43.19l-.09,14.24c.09.77,1.22.37,1.73.21,2.16-.67,2.95-2.22,3.08-4.39.12-1.89.21-6.3-.54-7.92-.58-1.25-2.37-2.46-3.76-2.34ZM120.09,23.32c-.32-.3-1.88.2-2.29.38-2.18.97-2.41,3.11-2.5,5.24-.1,2.49-.36,6.86,1.93,8.39.59.4,2.92,1.45,3.06.24v-13.62c0-.17-.09-.53-.2-.64ZM123.35,23.22c-.11.01-.36.11-.43.19l-.09,14.24c.09.77,1.22.37,1.73.21,2.16-.67,2.95-2.22,3.08-4.39.12-1.89.21-6.3-.54-7.92-.58-1.25-2.37-2.46-3.76-2.34ZM77.31,23.29h-4.9s0,19.31,0,19.31h4.9s0-19.31,0-19.31ZM110.26,37.95c.1.1.33.1.46.11.81.07,2.79.1,3.57,0,.7-.09.46-.69.35-1.16-.61-2.61-1.78-5.23-2.36-7.87.32-1.72,1.56-3.25,2.26-4.86.13-.32.05-.69-.27-.86l-3.77.02c-.36.12-.83,1.44-1.02,1.82.16,3.2-.34,6.87-.04,10.01.03.31.69,2.65.82,2.78ZM63.23,38.04c.1-.14.1-.3.11-.46.07-.82.1-2.79,0-3.57-.05-.41-.29-.48-.67-.49-.83-.02-2.52.16-3.37.28-1.15.17-.72,1.26-.41,2.08.66,1.76,2.59,2.5,4.34,2.16Z"/><path class="cls-1" d="M27.33,25.4c-.26-1.55.44-3.54,1.43-3.93.91-.36,2.74.1,3.88.86.49.33.69.54.75,1.18.1,1.18.04,3.92-.08,5.01-.06.59-.35.61-.88.38-.93-.39-3.24-1.68-4.17-2.31-.37-.25-.84-.66-.93-1.19Z"/><path class="cls-1" d="M26.08,33.92c-1.47-.55-2.84-2.15-2.68-3.2.15-.96,1.46-2.33,2.69-2.93.53-.26.81-.33,1.39-.06,1.07.51,3.42,1.93,4.3,2.57.48.35.35.61-.11.96-.8.61-3.07,1.97-4.08,2.45-.4.19-1,.4-1.49.21Z"/><path class="cls-1" d="M32.83,39.27c-1.21,1-3.28,1.39-4.12.72-.76-.61-1.28-2.43-1.2-3.79.04-.59.12-.87.65-1.24.97-.67,3.38-1.99,4.38-2.43.55-.24.7,0,.77.58.12,1,.17,3.65.08,4.76-.03.45-.15,1.06-.56,1.4Z"/><path class="cls-1" d="M41.97,36.09c.26,1.55-.44,3.54-1.43,3.93-.91.36-2.74-.1-3.88-.86-.49-.33-.69-.54-.75-1.18-.1-1.18-.04-3.92.08-5.01.06-.59.35-.61.88-.38.93.39,3.24,1.68,4.17,2.31.37.25.84.66.93,1.19Z"/><path class="cls-1" d="M43.22,27.57c1.47.55,2.84,2.15,2.68,3.2-.15.96-1.46,2.33-2.69,2.93-.53.26-.81.33-1.39.06-1.07-.51-3.42-1.93-4.3-2.57-.48-.35-.35-.61.11-.96.8-.61,3.07-1.97,4.08-2.45.4-.19,1-.4,1.49-.21Z"/><path class="cls-1" d="M36.47,22.23c1.21-1,3.28-1.39,4.12-.72.76.61,1.28,2.43,1.2,3.79-.04.59-.12.87-.65,1.24-.97.67-3.38,1.99-4.38,2.43-.55.24-.7,0-.77-.58-.12-1-.17-3.65-.08-4.76.03-.45.15-1.06.56-1.4Z"/></svg>