<?xml version="1.0" encoding="UTF-8"?>
<svg id="Layer_1" xmlns="http://www.w3.org/2000/svg" version="1.1" viewBox="0 0 400 400">
  <!-- Generator: Adobe Illustrator 29.6.1, SVG Export Plug-In . SVG Version: 2.1.1 Build 9)  -->
  <defs>
    <style>
      .st0 {
        fill: #fff;
      }
    </style>
  </defs>
  <path d="M115.73,139.52c-.6-.6-1.51-.56-1.73-.64-42.96.66-77.17,1.87-85.93,3.52-10.19,2.64-17.42,9.57-19.11,14.85-3.82,20.46-7.22,66.42,0,94.14,1.7,5.28,8.92,12.21,19.11,14.85,8.89,1.67,43.96,2.89,87.78,3.55.46-.2.75-.6.97-1.31.02-.05.03-.1.04-.15v-123.86c-.18-1.45.05-2.87-.53-4.05-.09-.18-.48-.7-.6-.9Z"/>
  <path d="M391.84,157.25c-1.7-5.28-8.92-12.21-19.11-14.85-12.92-2.43-121.71-3.9-191.74-4.08-17.72.04-35.32.17-51.95.38-1.03.06-2.1.24-2.69,1.01-.36.46-.57,1.09-.72,1.77v125.37c.01.05.02.11.03.17.03.68-.12,2.09.48,2.58.43.35,1.43.23,1.95.32.02,0,.03,0,.04.01,16.89.21,34.81.34,52.86.39,70.03-.17,178.82-1.65,191.74-4.08,10.19-2.64,17.42-9.57,19.11-14.85,4.67-22.44,1.7-74.67,0-94.14Z"/>
  <g>
    <path class="st0" d="M296.57,161.7h-16.23s0,69.93,0,69.93h16.23s0-69.93,0-69.93ZM213.97,181.28c-.99.22-1.7,1.19-1.72,2.18l.29,47.43c.9,2.33,6.09,1.11,8.12.58,8.79-2.3,9.03-11.01,9.31-18.59.15-3.91.14-8.41,0-12.32-.22-6.07-.39-14.89-6.71-17.89-2.14-1.02-7.02-1.89-9.29-1.38ZM167.46,215.21c.36.33.65,1.05.71,1.54.33,2.72-.67,13.06.45,14.55,1.12,1.48,6.34-.39,7.84-1.13,5.32-2.6,7.28-7.74,7.59-13.41.45-8.08-2.58-13.23-10.26-15.83-2.57-.87-10.46-1.91-11.65-3.95-1.52-2.6-.06-10.84-.59-14.11-.44-2.39-4.92-1.04-6.53-.54-6.11,1.91-8.36,6.37-8.78,12.52-.69,10.12,2.84,14.36,12.08,17.34,2.19.71,7.64,1.67,9.14,3.01ZM169.88,181.57c-.9.19-1.62.99-1.73,1.88-.3,2.26-.26,9.12,0,11.42.18,1.56.76,1.96,2.26,1.97,2.56.01,7.55-.55,10.16-.96,3.29-.52,2.82-2.1,2.2-4.83-.86-3.76-3.12-6.81-6.73-8.27-1.3-.52-4.88-1.49-6.16-1.22ZM250.58,181.9c-1.09-1.02-6.34.66-7.72,1.27-7.37,3.26-8.12,10.5-8.42,17.68-.35,8.41-1.23,23.13,6.51,28.31,1.99,1.33,9.83,4.88,10.3.81v-45.92c.01-.56-.31-1.8-.68-2.16ZM259.57,181.59c-.37.03-1.22.37-1.45.66l-.29,48.04c.32,2.59,4.12,1.25,5.85.72,7.28-2.25,9.93-7.5,10.38-14.82.39-6.38.7-21.24-1.81-26.72-1.94-4.23-7.98-8.31-12.69-7.88ZM338.78,181.9c-1.09-1.02-6.34.66-7.72,1.27-7.37,3.26-8.12,10.5-8.42,17.68-.35,8.41-1.23,23.13,6.51,28.31,1.99,1.33,9.83,4.88,10.3.81v-45.92c.01-.56-.31-1.8-.68-2.16ZM347.77,181.59c-.37.03-1.22.37-1.45.66l-.29,48.04c.32,2.59,4.12,1.25,5.85.72,7.28-2.25,9.93-7.5,10.38-14.82.39-6.38.7-21.24-1.81-26.72-1.94-4.23-7.98-8.31-12.69-7.88ZM205.97,181.8h-16.53s0,65.13,0,65.13h16.53s0-65.13,0-65.13ZM305.63,231.25c.33.33,1.1.34,1.57.38,2.75.23,9.41.35,12.03,0,2.34-.31,1.55-2.33,1.18-3.91-2.06-8.8-5.99-17.65-7.97-26.55,1.09-5.81,5.25-10.97,7.62-16.41.44-1.08.16-2.31-.91-2.89l-12.71.07c-1.21.4-2.79,4.87-3.45,6.15.53,10.78-1.16,23.15-.13,33.76.1,1.04,2.34,8.95,2.77,9.38ZM161.19,231.55c.34-.47.34-1.02.38-1.57.23-2.75.35-9.4,0-12.03-.18-1.4-.98-1.62-2.26-1.66-2.79-.07-8.5.53-11.37.96-3.89.57-2.42,4.26-1.39,7.02,2.22,5.94,8.74,8.44,14.64,7.27Z"/>
    <rect class="st0" x="280.34" y="161.7" width="16.23" height="69.93"/>
    <path class="st0" d="M338.78,181.9c.38.35.7,1.59.69,2.16v45.92c-.48,4.07-8.32.53-10.32-.81-7.74-5.18-6.86-19.91-6.51-28.31.3-7.18,1.05-14.42,8.42-17.68,1.38-.61,6.63-2.3,7.72-1.27Z"/>
    <path class="st0" d="M347.77,181.59c4.7-.43,10.74,3.65,12.69,7.88,2.52,5.48,2.2,20.34,1.81,26.72-.45,7.31-3.1,12.57-10.38,14.82-1.72.53-5.53,1.88-5.85-.72l.29-48.04c.22-.29,1.07-.62,1.45-.66Z"/>
    <path class="st0" d="M305.63,231.25c-.43-.43-2.67-8.34-2.77-9.38-1.03-10.61.66-22.98.13-33.76.66-1.28,2.24-5.75,3.45-6.15l12.71-.07c1.07.58,1.35,1.82.91,2.89-2.37,5.43-6.53,10.6-7.62,16.41,1.98,8.9,5.9,17.74,7.97,26.55.37,1.58,1.16,3.61-1.18,3.91-2.62.34-9.28.23-12.03,0-.46-.04-1.24-.05-1.57-.38Z"/>
    <rect class="st0" x="189.44" y="181.8" width="16.53" height="65.13"/>
    <path class="st0" d="M213.97,181.28c2.27-.51,7.15.37,9.29,1.38,6.32,3,6.49,11.83,6.71,17.89.14,3.91.15,8.41,0,12.32-.28,7.58-.52,16.29-9.31,18.59-2.03.53-7.22,1.75-8.12-.58l-.29-47.43c.02-.99.73-1.96,1.72-2.18Z"/>
    <path class="st0" d="M250.58,181.9c.38.35.7,1.59.69,2.16v45.92c-.48,4.07-8.32.53-10.32-.81-7.74-5.18-6.86-19.91-6.51-28.31.3-7.18,1.05-14.42,8.42-17.68,1.38-.61,6.63-2.3,7.72-1.27Z"/>
    <path class="st0" d="M259.57,181.59c4.7-.43,10.74,3.65,12.69,7.88,2.52,5.48,2.2,20.34,1.81,26.72-.45,7.31-3.1,12.57-10.38,14.82-1.72.53-5.53,1.88-5.85-.72l.29-48.04c.22-.29,1.07-.62,1.45-.66Z"/>
    <path class="st0" d="M167.46,215.21c-1.49-1.34-6.95-2.31-9.14-3.01-9.24-2.99-12.78-7.22-12.08-17.34.42-6.15,2.66-10.61,8.78-12.52,1.61-.5,6.08-1.84,6.53.54.53,3.27-.92,11.51.59,14.11,1.19,2.04,9.08,3.08,11.65,3.95,7.68,2.6,10.71,7.75,10.26,15.83-.31,5.67-2.27,10.81-7.59,13.41-1.5.73-6.72,2.61-7.84,1.13-1.12-1.48-.12-11.83-.45-14.55-.06-.5-.34-1.22-.71-1.54Z"/>
    <path class="st0" d="M161.19,231.55c-5.89,1.17-12.41-1.34-14.64-7.27-1.03-2.76-2.5-6.45,1.39-7.02,2.87-.42,8.58-1.03,11.37-.96,1.29.03,2.08.26,2.26,1.66.34,2.62.23,9.28,0,12.03-.05.55-.04,1.1-.38,1.57Z"/>
    <path class="st0" d="M169.88,181.57c1.28-.28,4.86.69,6.16,1.22,3.61,1.45,5.87,4.5,6.73,8.27.63,2.73,1.1,4.31-2.2,4.83-2.61.41-7.6.97-10.16.96-1.5,0-2.08-.41-2.26-1.97-.27-2.3-.3-9.17,0-11.42.12-.89.83-1.69,1.73-1.88Z"/>
  </g>
  <path class="st0" d="M47.74,191.94c-.72-4.36,1.23-9.94,4.02-11.03,2.55-1,7.71.28,10.92,2.41,1.38.91,1.95,1.51,2.1,3.31.27,3.31.1,11.03-.22,14.07-.18,1.67-.98,1.71-2.49,1.07-2.61-1.11-9.11-4.72-11.71-6.5-1.04-.71-2.37-1.86-2.62-3.34Z"/>
  <path class="st0" d="M44.22,215.89c-4.13-1.55-7.99-6.04-7.55-9,.41-2.7,4.1-6.54,7.55-8.25,1.48-.73,2.29-.93,3.92-.16,3,1.42,9.6,5.43,12.07,7.23,1.36.99.99,1.7-.31,2.69-2.26,1.7-8.64,5.53-11.48,6.89-1.14.55-2.8,1.12-4.2.6Z"/>
  <path class="st0" d="M63.2,230.91c-3.41,2.8-9.22,3.9-11.57,2.03-2.14-1.71-3.61-6.82-3.37-10.66.1-1.65.33-2.45,1.82-3.47,2.73-1.89,9.5-5.6,12.3-6.84,1.53-.68,1.97-.01,2.17,1.62.34,2.81.47,10.25.23,13.39-.1,1.26-.43,2.99-1.58,3.94Z"/>
  <path class="st0" d="M88.34,221.98c.72,4.36-1.23,9.94-4.02,11.03-2.55,1-7.71-.28-10.92-2.41-1.38-.91-1.95-1.51-2.1-3.31-.27-3.31-.1-11.03.22-14.07.18-1.67.98-1.71,2.49-1.07,2.61,1.11,9.11,4.72,11.71,6.5,1.04.71,2.37,1.86,2.62,3.34Z"/>
  <path class="st0" d="M91.86,198.04c4.13,1.55,7.99,6.04,7.55,9-.41,2.7-4.1,6.54-7.55,8.25-1.48.73-2.29.93-3.92.16-3-1.42-9.6-5.43-12.07-7.23-1.36-.99-.99-1.7.31-2.69,2.26-1.7,8.64-5.53,11.48-6.89,1.14-.55,2.8-1.12,4.2-.6Z"/>
  <path class="st0" d="M72.88,183.02c3.41-2.8,9.22-3.9,11.57-2.03,2.14,1.71,3.61,6.82,3.37,10.66-.1,1.65-.33,2.45-1.82,3.47-2.73,1.89-9.5,5.6-12.3,6.84-1.53.68-1.97.01-2.17-1.62-.34-2.81-.47-10.25-.23-13.39.1-1.26.43-2.99,1.58-3.94Z"/>
</svg>