<?xml version="1.0" encoding="UTF-8"?><svg id="Layer_1" xmlns="http://www.w3.org/2000/svg" width="64" height="64" viewBox="0 0 64 64"><defs><style>.cls-1{fill:#fff;stroke:#000;stroke-miterlimit:10;stroke-width:1.54px;}</style></defs><path d="M59.42,55.24c-.29,1.1-.78,2.07-1.49,2.88-1.84,2.26-5.04,3.65-8.73,4.59-2.2.39-8.99.87-17.03,1.2-.06,0-.16.03-.23,0-8.05-.32-14.84-.81-17.03-1.2-3.65-.94-6.85-2.33-8.73-4.56-.71-.84-1.23-1.78-1.49-2.91-3.04-11.99-1.45-41.7,0-46.45.39-1.29.87-2.29,1.49-3.14,1.68-2.29,4.23-3.23,7.92-4.2,2.49-.45,8.92-.97,17.97-1.33,9.05.36,15.45.87,17.94,1.33,3.68.97,6.24,1.91,7.92,4.2.61.84,1.1,1.84,1.49,3.14,1.45,4.75,3.04,34.46,0,46.45Z"/><path class="cls-1" d="M15.61,20.01c-.58-3.5.99-7.99,3.23-8.87,2.05-.8,6.2.23,8.78,1.94,1.11.73,1.57,1.22,1.69,2.67.22,2.66.08,8.87-.18,11.32-.14,1.34-.79,1.38-2,.86-2.1-.89-7.32-3.8-9.41-5.23-.84-.57-1.91-1.5-2.11-2.68Z"/><path class="cls-1" d="M12.78,39.26c-3.32-1.25-6.43-4.85-6.07-7.24.33-2.17,3.3-5.26,6.07-6.63,1.19-.59,1.84-.75,3.15-.13,2.42,1.14,7.72,4.37,9.71,5.81,1.09.79.8,1.37-.25,2.16-1.82,1.37-6.95,4.44-9.23,5.54-.91.44-2.25.9-3.38.48Z"/><path class="cls-1" d="M28.04,51.34c-2.74,2.25-7.42,3.14-9.3,1.64-1.72-1.37-2.9-5.48-2.71-8.57.08-1.33.27-1.97,1.47-2.79,2.2-1.52,7.64-4.5,9.89-5.5,1.23-.55,1.59,0,1.75,1.3.28,2.26.37,8.24.18,10.77-.08,1.01-.34,2.4-1.27,3.17Z"/><path class="cls-1" d="M48.51,44.16c.58,3.5-.99,7.99-3.23,8.87-2.05.8-6.2-.23-8.78-1.94-1.11-.73-1.57-1.22-1.69-2.67-.22-2.66-.08-8.87.18-11.32.14-1.34.79-1.38,2-.86,2.1.89,7.32,3.8,9.41,5.23.84.57,1.91,1.5,2.11,2.68Z"/><path class="cls-1" d="M51.34,24.91c3.32,1.25,6.43,4.85,6.07,7.24-.33,2.17-3.3,5.26-6.07,6.63-1.19.59-1.84.75-3.15.13-2.42-1.14-7.72-4.37-9.71-5.81-1.09-.79-.8-1.37.25-2.16,1.82-1.37,6.95-4.44,9.23-5.54.91-.44,2.25-.9,3.38-.48Z"/><path class="cls-1" d="M36.08,12.83c2.74-2.25,7.42-3.14,9.3-1.64,1.72,1.37,2.9,5.48,2.71,8.57-.08,1.33-.27,1.97-1.47,2.79-2.2,1.52-7.64,4.5-9.89,5.5-1.23.55-1.59,0-1.75-1.3-.28-2.26-.37-8.24-.18-10.77.08-1.01.34-2.4,1.27-3.17Z"/></svg>