<svg width="80" height="80" viewBox="0 0 80 80" xmlns="http://www.w3.org/2000/svg">
  <!-- Icon container centered -->
  <g transform="translate(15, 15)">
    <!-- Asterisk/flower icon -->
    <g fill="black">
      <!-- Center circle -->
      <circle cx="25" cy="25" r="3"/>
      
      <!-- Six petals -->
      <!-- Top -->
      <path d="M 25 8 C 22 8, 20 12, 22 16 C 24 18, 26 18, 28 16 C 30 12, 28 8, 25 8 Z"/>
      <!-- Top right -->
      <path d="M 25 8 C 22 8, 20 12, 22 16 C 24 18, 26 18, 28 16 C 30 12, 28 8, 25 8 Z" transform="rotate(60 25 25)"/>
      <!-- Bottom right -->
      <path d="M 25 8 C 22 8, 20 12, 22 16 C 24 18, 26 18, 28 16 C 30 12, 28 8, 25 8 Z" transform="rotate(120 25 25)"/>
      <!-- Bottom -->
      <path d="M 25 8 C 22 8, 20 12, 22 16 C 24 18, 26 18, 28 16 C 30 12, 28 8, 25 8 Z" transform="rotate(180 25 25)"/>
      <!-- Bottom left -->
      <path d="M 25 8 C 22 8, 20 12, 22 16 C 24 18, 26 18, 28 16 C 30 12, 28 8, 25 8 Z" transform="rotate(240 25 25)"/>
      <!-- Top left -->
      <path d="M 25 8 C 22 8, 20 12, 22 16 C 24 18, 26 18, 28 16 C 30 12, 28 8, 25 8 Z" transform="rotate(300 25 25)"/>
    </g>
  </g>
</svg>
