<svg width="400" height="120" viewBox="0 0 400 120" xmlns="http://www.w3.org/2000/svg">
  <!-- Background rounded rectangle -->
  <rect x="10" y="10" width="380" height="100" rx="20" ry="20" fill="white" stroke="none"/>
  
  <!-- Icon container -->
  <g transform="translate(40, 35)">
    <!-- Asterisk/flower icon -->
    <g fill="black">
      <!-- Center circle -->
      <circle cx="25" cy="25" r="3"/>
      
      <!-- Six petals -->
      <!-- Top -->
      <path d="M 25 8 C 22 8, 20 12, 22 16 C 24 18, 26 18, 28 16 C 30 12, 28 8, 25 8 Z"/>
      <!-- Top right -->
      <path d="M 25 8 C 22 8, 20 12, 22 16 C 24 18, 26 18, 28 16 C 30 12, 28 8, 25 8 Z" transform="rotate(60 25 25)"/>
      <!-- Bottom right -->
      <path d="M 25 8 C 22 8, 20 12, 22 16 C 24 18, 26 18, 28 16 C 30 12, 28 8, 25 8 Z" transform="rotate(120 25 25)"/>
      <!-- Bottom -->
      <path d="M 25 8 C 22 8, 20 12, 22 16 C 24 18, 26 18, 28 16 C 30 12, 28 8, 25 8 Z" transform="rotate(180 25 25)"/>
      <!-- Bottom left -->
      <path d="M 25 8 C 22 8, 20 12, 22 16 C 24 18, 26 18, 28 16 C 30 12, 28 8, 25 8 Z" transform="rotate(240 25 25)"/>
      <!-- Top left -->
      <path d="M 25 8 C 22 8, 20 12, 22 16 C 24 18, 26 18, 28 16 C 30 12, 28 8, 25 8 Z" transform="rotate(300 25 25)"/>
    </g>
  </g>
  
  <!-- Vertical separator line -->
  <line x1="110" y1="25" x2="110" y2="95" stroke="black" stroke-width="2"/>
  
  <!-- Text "spoko" -->
  <text x="130" y="75" font-family="Arial, sans-serif" font-size="48" font-weight="bold" fill="black">spoko</text>
</svg>
